PathFileType	4	(X/Y/Z)	C:\Users\WrightLab\Desktop\Jo\P1.2Trial8.trc
DataRate	CameraRate	NumFrames	NumMarkers	Units	OrigDataRate	OrigDataStartFrame	OrigNumFrames
100.00	100.00	       48	19	mm	100.00	828	       946
Frame#	Time	Headset_Front			Headset_Back			Headset_Left			Headset_Right			Left_Shoulder			Right_Shoulder			Sternum			C7			Left Elbow			Right Elbow			Left Wrist			Right Wrist			Left ASIS			Right ASIS			S2			Left Knee			Right Knee			Left Ankle			Right Ankle			
		X1	Y1	Z1	X2	Y2	Z2	X3	Y3	Z3	X4	Y4	Z4	X5	Y5	Z5	X6	Y6	Z6	X7	Y7	Z7	X8	Y8	Z8	X9	Y9	Z9	X10	Y10	Z10	X11	Y11	Z11	X12	Y12	Z12	X13	Y13	Z13	X14	Y14	Z14	X15	Y15	Z15	X16	Y16	Z16	X17	Y17	Z17	X18	Y18	Z18	X19	Y19	Z19	

828	8.270																						-462.90225	1268.75659	-1379.28406				-280.93448	969.91907	-1127.55054	-521.49207	866.89410	-1378.47559	-126.04218	745.59985	-1147.03027													-229.78160	394.16058	-1275.88562							
829	8.280																						-459.32608	1268.89844	-1384.41260				-282.31299	971.99127	-1129.14160	-518.82227	866.42944	-1388.46338	-125.22878	748.11353	-1148.46277													-230.94466	393.68008	-1273.73242							
830	8.290																						-455.38437	1270.22656	-1392.76453				-283.37225	970.85632	-1134.87061	-516.00421	866.62335	-1397.56921	-124.77619	749.37183	-1150.38159													-232.33698	394.00769	-1273.58655							
831	8.300																						-451.79071	1269.61255	-1396.48584				-285.16483	971.15936	-1134.81934	-512.85602	868.41449	-1398.81750	-125.03384	750.67157	-1156.11926													-232.76382	394.91443	-1269.67664							
832	8.310																						-448.01254	1268.95837	-1400.20056				-286.85376	972.71130	-1133.86646	-509.77417	867.23181	-1415.81592	-124.36724	750.56049	-1164.91357													-234.10196	393.85477	-1270.80798							
833	8.320																						-443.86182	1270.15576	-1408.91028				-289.04785	971.83557	-1137.05469	-504.38919	868.87262	-1415.97107	-124.87441	752.30957	-1171.58655													-235.81294	393.08493	-1269.42297							
834	8.330																						-439.62296	1270.56177	-1416.05774				-295.84857	975.41351	-1131.40649	-501.09061	868.18469	-1428.07324	-126.20494	753.68939	-1169.39783													-237.75859	392.21097	-1270.02332							
835	8.340																						-434.79797	1269.20471	-1419.28149				-288.49957	975.41022	-1131.52722	-496.21997	869.73041	-1433.40735	-126.85326	756.74231	-1170.45801													-240.71628	392.50989	-1269.49658							
836	8.350																						-430.28503	1270.81104	-1429.39758				-299.49582	972.96033	-1146.49670	-492.04315	870.28174	-1442.29919	-128.36685	757.71570	-1175.49646													-240.79924	392.53906	-1268.26563							
837	8.360																						-426.01926	1270.18616	-1433.81091				-303.19382	974.67963	-1145.76526	-487.64777	869.73749	-1448.95532	-129.56157	757.19781	-1184.36218													-242.46339	393.13016	-1267.10413							
838	8.370																						-421.70093	1269.56750	-1438.18616				-307.59253	973.34509	-1152.06567	-482.93079	869.71924	-1456.34131	-132.43114	761.20941	-1177.55786													-243.98218	392.34207	-1266.77637							
839	8.380																						-416.63297	1271.62378	-1449.76160				-314.06448	973.60242	-1153.95923	-477.57236	872.27350	-1469.31580	-134.81978	760.26166	-1187.05737													-244.95808	391.78644	-1269.43640							
840	8.390																						-411.70264	1270.92200	-1454.43286				-318.34451	974.96179	-1153.98901	-472.46869	871.79102	-1476.17896	-139.14896	762.29102	-1185.15540													-246.12140	390.97867	-1270.64636							
841	8.400																						-406.40585	1270.44495	-1459.96411				-323.50992	974.55621	-1158.51672	-466.95981	870.95251	-1482.45728	-141.78403	761.39746	-1188.28650													-247.10207	392.20193	-1269.43823							
842	8.410																						-401.68756	1271.55481	-1468.93372				-329.82251	974.54236	-1163.75720	-461.73846	872.75403	-1493.55957	-147.23714	761.64502	-1187.78088													-248.44930	391.90317	-1272.66846							
843	8.420																						-396.48090	1272.16846	-1477.24280				-335.57272	975.22723	-1166.04016	-455.50604	872.13824	-1500.05640	-152.34787	762.35229	-1190.64526													-249.25204	393.21265	-1272.74744							
844	8.430																						-390.99213	1270.61279	-1480.71179				-339.77597	976.00507	-1169.21021	-449.99332	871.70245	-1507.38806	-157.45833	763.95599	-1184.71814													-249.29675	394.42889	-1271.44751							
845	8.440																						-386.55743	1272.64465	-1492.38159				-344.62939	974.83905	-1177.43872	-443.51529	872.54144	-1517.08716	-164.22070	761.72650	-1189.61877													-250.08591	393.42160	-1273.51904							
846	8.450																												-350.93683	976.12860	-1182.26880	-437.09253	872.69153	-1525.77710	-171.58984	759.10510	-1189.51111													-250.88541	394.05850	-1275.86133							
847	8.460																												-356.81421	976.36401	-1188.44824	-430.26160	871.29114	-1532.14673	-178.25862	758.85272	-1188.11023													-251.85680	393.99356	-1276.87683							
848	8.470																												-360.55771	975.27319	-1196.35535	-423.22202	871.59521	-1542.05933	-185.30457	757.20953	-1185.43945													-252.74583	393.87469	-1279.66418							
849	8.480																												-366.03546	976.69250	-1197.12402	-415.42966	871.48621	-1551.54712	-193.10294	754.06879	-1188.80164													-253.63252	395.63196	-1279.09778							
850	8.490																												-372.22379	977.02686	-1203.66150	-407.93060	870.25787	-1560.05273	-202.33995	753.76685	-1184.64099													-254.63126	396.88055	-1280.50989							
851	8.500																												-377.25098	975.62097	-1215.67383	-399.35376	868.69940	-1567.95923	-210.90520	750.71167	-1187.33582													-255.23753	397.16040	-1282.18518							
852	8.510																												-382.80911	975.63300	-1223.21985				-220.20731	747.44232	-1186.54126													-256.08960	397.40906	-1282.94409							
853	8.520																												-387.14093	976.46448	-1225.49915				-229.87018	747.32794	-1184.17834													-256.50040	395.65738	-1289.19299							
854	8.530																												-391.20300	974.67297	-1235.28186				-239.92604	743.62231	-1183.27380													-258.44485	397.87823	-1288.24072							
855	8.540																												-396.89352	974.46136	-1244.06531				-250.43777	742.84399	-1181.21436													-259.23807	397.54269	-1290.44763							
856	8.550																												-401.06317	973.78314	-1257.23853				-262.70392	739.69653	-1183.64612													-259.81915	398.47266	-1289.80249							
857	8.560																												-403.03027	972.72540	-1268.17212				-274.54379	739.84137	-1182.09900													-259.95056	398.26318	-1293.20715							
858	8.570																												-407.12061	973.90161	-1274.63257				-285.59076	739.55664	-1179.87402													-259.46500	398.67642	-1296.03333							
859	8.580																												-411.08228	973.43158	-1289.18811				-298.77762	739.20148	-1183.80310													-259.25980	399.43771	-1297.45105							
860	8.590																												-412.84427	973.58185	-1295.14673				-310.40063	739.17133	-1185.18140													-259.42062	398.83090	-1302.78333							
861	8.600																												-415.80447	973.22345	-1309.45789				-324.12033	738.89014	-1190.14417													-258.69553	399.43466	-1304.69849							
862	8.610																												-418.06174	972.29370	-1321.89514				-336.92719	740.25037	-1193.26550													-258.40433	399.50638	-1307.65295							
863	8.620																												-418.26956	972.36102	-1334.94080				-349.07339	740.98120	-1197.29248													-258.50861	400.35455	-1310.27588							
864	8.630																												-421.54642	972.76666	-1344.27942				-362.51196	740.49994	-1210.64917													-257.48483	402.24091	-1310.50525							
865	8.640																												-421.63187	971.99731	-1356.56189				-373.84717	742.49933	-1212.41870													-256.21393	400.30835	-1318.92053							
866	8.650																												-422.47775	973.33124	-1367.52576				-385.33551	741.89099	-1221.50928													-255.67915	401.60077	-1323.24939							
867	8.660																												-425.93533	975.96771	-1370.88098				-395.84964	744.96124	-1227.03638													-254.93559	401.89145	-1327.21545							
868	8.670																												-426.03995	975.57733	-1380.80835				-406.68478	744.55713	-1238.19080													-254.23595	405.59305	-1328.63428							
869	8.680																												-426.70743	973.99640	-1398.49377				-415.91052	744.70093	-1247.64673													-252.59355	406.10269	-1332.96545							
870	8.690																												-426.73053	975.38129	-1407.68176				-423.80518	745.86450	-1257.07874													-251.39578	407.37692	-1338.62476							
871	8.700																												-428.26089	977.33270	-1411.51416				-429.82822	745.59106	-1265.23328													-249.09436	408.14090	-1343.81299							
872	8.710																												-429.90210	979.29785	-1419.04700				-436.38565	748.05438	-1275.63782													-246.26517	406.86749	-1352.79846							
873	8.720																												-430.97986	980.45111	-1425.85815				-442.67728	748.61969	-1283.90820													-245.58745	408.52176	-1356.40222							
874	8.730																												-431.79834	980.71954	-1437.04944				-446.88226	748.87408	-1296.06372													-244.91592	408.76733	-1360.87939							
875	8.740																												-433.43845	980.77179	-1447.76270				-450.78424	748.58069	-1302.81836													-244.04793	407.60144	-1367.02283							
